# xmcd
#
# Track frame offsets:
#	150
#	10517
#	22842
#	33582
#	44742
#	56689
#	69095
#	80562
#	88385
#	100500
#
# Disc length: 1531
#
# Revision: 1
# Processed by: cddbd v1.5.1PL0 Copyright (c) Steve Scherf et al.
# Submitted via: audiograbber 1.82.01
# Normalized: r0:DSETVAR2
#
DISCID=7305f90a
DTITLE=Various Artist - Classic Country Crate (2]
DYEAR=1900
DGENRE=Country
TTITLE0=Dave Dudley - Six Days on the Road
TTITLE1=Freddy Fender - Wasted Days and Wasted Nights
TTITLE2=Ferlin Husky - Wings of a Dove
TTITLE3=Stonewall Jackson - Waterloo
TTITLE4=Willie Nelson - Night Life
TTITLE5=Charlie Rich - Behind Closed Doors
TTITLE6=Fonnie Rodriguez - Pass Me By
TTITLE7=Goerge Jones - Jambalaya (On the Bayou)
TTITLE8=Eddy Raven - Fais Do Do
TTITLE9=Lee Greenwood - God Bless the U.S.A.
EXTD=
EXTT0=
EXTT1=
EXTT2=
EXTT3=
EXTT4=
EXTT5=
EXTT6=
EXTT7=
EXTT8=
EXTT9=
PLAYORDER=
